<svg width="153" height="66" fill="none" xmlns="http://www.w3.org/2000/svg">
  <path fill-rule="evenodd" clip-rule="evenodd" d="M2.5778 27.3244a.6445.6445 0 0 0-.6445.6445v29.6444c0 3.2033 2.5968 5.8 5.8 5.8h42.5334c3.2032 0 5.8-2.5967 5.8-5.8V27.9689a.6446.6446 0 0 0-.6445-.6445H2.5778ZM0 27.9689c0-1.4237 1.1541-2.5778 2.5778-2.5778h52.8444c1.4237 0 2.5778 1.1541 2.5778 2.5778v29.6444c0 4.271-3.4623 7.7334-7.7333 7.7334H7.7333C3.4623 65.3467 0 61.8843 0 57.6133V27.9689Zm55.4222-10.9556H2.5778a.6444.6444 0 0 0-.6445.6444v3.8667c0 .3559.2886.6444.6445.6444h52.8444a.6445.6445 0 0 0 .6445-.6444v-3.8667a.6445.6445 0 0 0-.6445-.6444ZM2.5778 15.08C1.154 15.08 0 16.2341 0 17.6577v3.8667c0 1.4237 1.1541 2.5778 2.5778 2.5778h52.8444c1.4237 0 2.5778-1.1541 2.5778-2.5778v-3.8667c0-1.4236-1.1541-2.5777-2.5778-2.5777H2.5778Z" fill="#fff"/>
  <path fill-rule="evenodd" clip-rule="evenodd" d="M33.7214 14.6933c-.724-1.5241-2.2775-2.5778-4.077-2.5778s-3.353 1.0537-4.077 2.5778h8.154Zm2.0724 0c-.8212-2.6146-3.2638-4.5111-6.1494-4.5111s-5.3282 1.8965-6.1494 4.5111a6.4415 6.4415 0 0 0-.295 1.9333h12.8888c0-.6735-.1033-1.323-.295-1.9333ZM13.8555 52.2c.5339 0 .9666.4328.9666.9667v10.6978c0 .5338-.4327.9666-.9666.9666s-.9667-.4328-.9667-.9666V53.1667a.9667.9667 0 0 1 .9667-.9667Z" fill="#fff"/>
  <path fill-rule="evenodd" clip-rule="evenodd" d="M29.9667 15.7244c.5339 0 .9666.4328.9666.9667v5.4133a.9667.9667 0 1 1-1.9333 0v-5.4133a.9667.9667 0 0 1 .9667-.9667ZM13.8555 47.8177c.5339 0 .9666.4328.9666.9667v.2578a.9667.9667 0 1 1-1.9333 0v-.2578a.9667.9667 0 0 1 .9667-.9667Zm32.2223-14.4355c.5338 0 .9666.4328.9666.9667v.2577a.9667.9667 0 1 1-1.9333 0v-.2577a.9667.9667 0 0 1 .9667-.9667Zm0-6.8311c.5338 0 .9666.4328.9666.9667v2.5777a.9667.9667 0 1 1-1.9333 0v-2.5777a.9667.9667 0 0 1 .9667-.9667ZM12.0212 5.9403c-.5705.8356-.749 1.7684-.1745 2.9561.8754 1.8098 2.7767 2.8788 5.4019 3.3837 2.1282.4094 4.4627.3881 6.438.2249-1.9059-1.9197-4.0681-4.9277-3.9451-8.7214.0093-.2846-.0621-.3617-.0835-.3849l-.0019-.002c-.0517-.0567-.2206-.1934-.6392-.2877-.8713-.1965-2.2589-.0733-3.7129.4818-1.4423.5506-2.6405 1.409-3.2828 2.3495Zm9.6527-2.094c.1922-5.9238-15.1615-1.538-11.5676 5.892 2.5267 5.2236 10.5271 5.097 15.0556 4.5611 1.1598-.1372 1.4776-1.6967.6097-2.4781-1.9291-1.7365-4.2095-4.5313-4.0977-7.975Zm25.4648 2.094c.5705.8356.749 1.7684.1745 2.9561-.8754 1.8098-2.7767 2.8788-5.4019 3.3837-2.1282.4094-4.4627.3881-6.438.2249 1.9059-1.9197 4.0682-4.9277 3.9451-8.7214-.0093-.2846.0621-.3617.0835-.3849l.0019-.002c.0517-.0567.2206-.1934.6392-.2877.8713-.1965 2.2589-.0733 3.7129.4818 1.4423.5506 2.6405 1.409 3.2828 2.3495Zm-9.6527-2.094c-.1922-5.9238 15.1615-1.538 11.5676 5.892-2.5267 5.2236-10.5271 5.097-15.0556 4.5611-1.1598-.1372-1.4776-1.6967-.6096-2.4781 1.929-1.7365 4.2094-4.5313 4.0976-7.975Z" fill="#fff"/>
  <circle cx="18.6889" cy="37.6355" r="2.5778" fill="#fff"/>
  <circle cx="39.3111" cy="37.6355" r="2.5778" fill="#fff"/>
  <path fill-rule="evenodd" clip-rule="evenodd" d="M22.04 45.6911a.9667.9667 0 0 1 .9667.9667c0 3.31 2.6833 5.9933 5.9933 5.9933 3.3101 0 5.9934-2.6833 5.9934-5.9933a.9667.9667 0 1 1 1.9333 0c0 4.3777-3.5489 7.9266-7.9267 7.9266-4.3777 0-7.9266-3.5489-7.9266-7.9266 0-.5339.4328-.9667.9666-.9667Z" fill="#fff"/>
  <path d="M80.684 45.148v-7.276h4.148c.612 0 1.2013.0453 1.768.136s1.0653.272 1.496.544c.4307.2493.7707.612 1.02 1.088.272.476.408 1.0993.408 1.87 0 .7707-.136 1.394-.408 1.87-.2493.476-.5893.85-1.02 1.122-.4307.2493-.9293.4193-1.496.51s-1.156.136-1.768.136h-4.148Zm-5.338-11.424V58h5.338v-8.704h5.61c1.5187 0 2.8107-.2153 3.876-.646 1.0653-.4533 1.9267-1.0427 2.584-1.768.68-.7253 1.1673-1.5527 1.462-2.482.3173-.952.476-1.9153.476-2.89 0-.9973-.1587-1.9607-.476-2.89-.2947-.9293-.782-1.7567-1.462-2.482-.6573-.7253-1.5187-1.3033-2.584-1.734-1.0653-.4533-2.3573-.68-3.876-.68H75.346Zm22.1677 0V58h4.8283v-9.214c0-1.7907.294-3.0713.884-3.842.589-.7933 1.541-1.19 2.856-1.19 1.156 0 1.96.3627 2.414 1.088.453.7027.68 1.7793.68 3.23V58h4.828V47.188c0-1.088-.102-2.074-.306-2.958-.182-.9067-.51-1.666-.986-2.278-.476-.6347-1.134-1.122-1.972-1.462-.816-.3627-1.87-.544-3.162-.544-.907 0-1.836.238-2.788.714-.952.4533-1.734 1.19-2.346 2.21h-.102v-9.146h-4.8283Zm28.8243 26.452 7.344-19.754h-4.998l-3.842 12.036h-.068l-3.978-12.036h-5.134l6.154 16.49c.136.34.204.7027.204 1.088 0 .5213-.159.9973-.476 1.428-.295.4307-.759.68-1.394.748-.476.0227-.952.0113-1.428-.034s-.941-.0907-1.394-.136v3.978c.499.0453.986.0793 1.462.102.499.0453.997.068 1.496.068 1.655 0 2.947-.306 3.876-.918.929-.612 1.655-1.632 2.176-3.06Zm14.231-22.474v-3.978h-4.828v3.978h4.828Zm-7.718 22.338v3.978c.453.0907.963.136 1.53.136 1.224 0 2.233-.1133 3.026-.34.793-.204 1.417-.5327 1.87-.986.476-.4307.805-.9747.986-1.632.204-.6573.306-1.4393.306-2.346V40.422h-4.828v18.19c0 .6573-.193 1.0767-.578 1.258-.363.204-.793.306-1.292.306-.431 0-.771-.0453-1.02-.136Zm16.875-22.338v-3.978h-4.828v3.978h4.828Zm-4.828 2.72V58h4.828V40.422h-4.828Z" fill="#fff"/>
</svg>
